<?xml version="1.0" encoding="UTF-8"?>
<svg width="96px" height="103px" viewBox="0 0 96 103" version="1.1" xmlns="http://www.w3.org/2000/svg" xmlns:xlink="http://www.w3.org/1999/xlink">
    <title>Artboard</title>
    <g id="Artboard" stroke="none" stroke-width="1" fill="none" fill-rule="evenodd">
        <path d="M18.4161147,6.03594274 C17.9824975,6.92804999 17.723405,7.97478364 17.0887321,8.68822071 C9.33875758,17.4028483 10.9691748,29.6361592 19.2178505,39.7743446 C22.9483677,44.3596598 27.4428969,48.3318585 31.6733591,52.4988948 C36.0157491,56.7753718 40.4742127,60.9337025 44.8543266,65.1728702 C57.0420372,76.9692475 50.8661014,91.4017354 41.5130699,98.1277763 C33.0998187,104.178104 22.1657012,104.30537 13.9103927,98.0328449 C9.19532398,94.4503212 4.86412669,90.3628781 0.0400318569,86.2294202 C3.55747146,82.9822659 6.80711307,79.9817676 10.4592808,76.6102489 C13.6222819,79.1733991 17.1330887,82.1129588 20.7454598,84.922765 C24.8494848,88.115199 29.6856015,88.0708424 32.5488844,84.9538561 C35.5667937,81.6685634 35.0436341,76.7263224 31.2559092,72.9004591 C24.5166027,66.0944103 17.5650477,59.4848574 11.0728118,52.4512218 C1.08925279,41.635665 -0.0855761808,32.312481 7.07532561,19.5551814 C9.93529212,14.4595577 13.8565015,9.95963936 17.2951769,5.18860667 C17.6686847,5.47091384 18.042607,5.75363557 18.4161147,6.03594274" id="Fill-9" fill="#FFFFFF"></path>
        <path d="M65.4990647,16.2943885 C61.6835651,19.6368888 58.4451163,22.4732261 54.7129408,25.742766 C53.0452143,24.3988015 50.7345239,22.5213137 48.4051788,20.6662115 C46.929388,19.4905534 45.4830301,18.2643205 43.9239151,17.2084668 C39.8256938,14.4338972 35.2851498,14.8484451 32.5454022,18.1561235 C29.8400621,21.422347 30.5787866,26.5726911 34.0485532,29.9230679 C41.1385673,36.7684986 48.1328208,43.7125918 55.1992056,50.5820664 C67.8764974,62.9061633 64.0352958,77.1313772 56.4117585,88.0111889 C54.27352,91.062262 51.6150238,93.749362 48.5689252,96.2519882 C48.8292614,95.5033145 48.9925933,94.7015788 49.3652719,94.0134291 C56.3674018,81.0787031 55.3351774,71.3500911 45.0079581,60.6128839 C38.9866487,54.3523803 32.2427822,48.79039 25.8765688,42.8573794 C23.7565705,40.8820582 21.8459188,38.6837103 19.7607425,36.6690071 C13.6225306,30.7380692 12.2926607,23.5568545 15.2143948,15.8868878 C18.421338,7.46783291 24.71542,2.00243236 33.7384713,0.486015847 C40.7832996,-0.697518634 47.2838265,1.03404828 52.852035,5.74372787 C56.8246482,9.10322469 60.8407891,12.4113176 65.4990647,16.2943885" id="Fill-11" fill="#FFFFFF"></path>
        <path d="M49.7757988,99.3806647 C55.7452897,91.0863887 62.629688,84.1646811 73.9447751,84.7686775 C81.5111048,85.1724473 88.8689169,84.9829988 95.5261429,78.6412438 C91.941961,89.7722716 83.9871999,96.0174369 74.0782595,95.5046411 C65.6612773,95.0693657 57.6613304,95.9954659 49.7757988,99.3806647" id="Fill-13" fill="#FFFFFF"></path>
        <path d="M12.9612022,75.9178294 C15.7167026,72.7738976 18.260369,69.8720617 21.2227289,66.492252 C24.4491558,69.3741896 27.7958016,71.892154 30.5309892,74.9556636 C32.7347263,77.4234677 32.944073,80.5412831 30.3249589,83.1856846 C27.7713433,85.7645876 24.7953034,85.7985805 22.0659195,83.7511281 C18.9651006,81.4259284 16.1631708,78.7027628 12.9612022,75.9178294" id="Fill-15" fill="#FFFFFF"></path>
        <path d="M44.0747691,36.0309349 C41.0518853,33.4155517 38.1098383,31.0658937 35.4011818,28.4728961 C32.755122,25.9391789 32.1726821,22.9013713 34.7254686,19.9680298 C37.3325608,16.9720915 40.3338882,16.928564 43.6113045,19.1928251 C53.257836,25.8570984 53.3436474,26.9523341 44.0747691,36.0309349" id="Fill-17" fill="#FFFFFF"></path>
    </g>
</svg>