<?xml version="1.0" encoding="UTF-8"?>
<svg width="702px" height="194px" viewBox="0 0 702 194" version="1.1" xmlns="http://www.w3.org/2000/svg" xmlns:xlink="http://www.w3.org/1999/xlink">
    <title>Group</title>
    <g id="Page-1" stroke="none" stroke-width="1" fill="none" fill-rule="evenodd">
        <g id="Artboard" transform="translate(-606.000000, -82.000000)">
            <g id="Group" transform="translate(606.000000, 82.000000)">
                <g id="Raylı-Sistem-Araçlar" transform="translate(156.311063, 34.432429)" fill="#000000" fill-rule="nonzero">
                    <path d="M6.02630244,46.756839 L6.02630244,4.36074146 L23.4314146,4.36074146 C27.177665,4.36074146 30.3975919,4.96277236 33.0911951,6.16683415 C35.7847984,7.37089593 37.8572862,9.1039626 39.3086585,11.3660341 C40.7600309,13.6281057 41.4857171,16.3240748 41.4857171,19.4539415 C41.4857171,22.548478 40.7600309,25.2152683 39.3086585,27.4543122 C37.8572862,29.6933561 35.7847984,31.4123854 33.0911951,32.6114 C30.3975919,33.8104146 27.177665,34.409922 23.4314146,34.409922 L10.3747415,34.409922 L13.8866146,30.8554634 L13.8866146,46.756839 L6.02630244,46.756839 Z M33.7238244,46.756839 L22.9904195,31.3655415 L31.4346244,31.3655415 L42.2361659,46.756839 L33.7238244,46.756839 Z M13.8866146,31.6920293 L10.3747415,27.900039 L23.1030341,27.900039 C26.5578114,27.900039 29.1640358,27.157161 30.9217073,25.6714049 C32.6793789,24.1856488 33.5582146,22.113161 33.5582146,19.4539415 C33.5582146,16.7593919 32.6793789,14.6779138 30.9217073,13.2095073 C29.1640358,11.7411008 26.5578114,11.0068976 23.1030341,11.0068976 L10.3747415,11.0068976 L13.8866146,7.16285854 L13.8866146,31.6920293 Z" id="Shape"></path>
                    <path d="M69.1505069,46.756839 L69.1505069,40.1968 L68.7615605,38.8321756 L68.7615605,27.3719805 C68.7615605,25.1594341 68.0910776,23.4358309 66.7501117,22.2011707 C65.4091459,20.9665106 63.3822402,20.3491805 60.6693947,20.3491805 C58.858728,20.3491805 57.0808678,20.6340293 55.3358142,21.2037268 C53.5907605,21.7734244 52.1027963,22.5500553 50.8719215,23.5336195 L47.9344776,18.042 C49.6618662,16.7253236 51.7288337,15.7264602 54.13538,15.0454098 C56.5419264,14.3643593 59.0372711,14.0238341 61.6214142,14.0238341 C66.2950792,14.0238341 69.9153085,15.1461951 72.482102,17.3909171 C75.0488955,19.635639 76.3322922,23.1020878 76.3322922,27.7902634 L76.3322922,46.756839 L69.1505069,46.756839 Z M59.0237069,47.1514634 C56.5651117,47.1514634 54.4273264,46.7398049 52.6103508,45.9164878 C50.7933751,45.0931707 49.3940516,43.9482553 48.41238,42.4817415 C47.4307085,41.0152276 46.9398727,39.3507707 46.9398727,37.4883707 C46.9398727,35.6644553 47.379606,34.0318585 48.2590727,32.5905805 C49.1385394,31.1493024 50.5668841,30.0012325 52.5441069,29.1463707 C54.5213296,28.2915089 57.1379638,27.864078 60.3940093,27.864078 L69.7769849,27.864078 L69.7769849,32.8834732 L60.9400483,32.8834732 C58.3615833,32.8834732 56.624889,33.3001789 55.7299654,34.1335902 C54.8350418,34.9670016 54.38758,35.988735 54.38758,37.1987902 C54.38758,38.5634146 54.9351963,39.6476065 56.0304288,40.4513659 C57.1256613,41.2551252 58.635076,41.6570049 60.5586727,41.6570049 C62.4368451,41.6570049 64.1123426,41.2376179 65.5851654,40.3988439 C67.0579882,39.5600699 68.1167865,38.3142114 68.7615605,36.6612683 L70.0429069,41.1942439 C69.3072841,43.0944976 68.003541,44.5624309 66.1316776,45.5980439 C64.2598142,46.6336569 61.8904906,47.1514634 59.0237069,47.1514634 Z" id="Shape"></path>
                    <path d="M88.0860448,58.901239 C86.4797879,58.901239 84.8960855,58.6463577 83.3349375,58.1365951 C81.7737895,57.6268325 80.4632643,56.8924715 79.4033619,55.9335122 L82.4165131,50.395522 C83.1729554,51.0964455 84.0379115,51.6434309 85.0113814,52.036478 C85.9848513,52.4295252 86.9810334,52.6260488 87.9999277,52.6260488 C89.3519342,52.6260488 90.4563147,52.285839 91.3130692,51.6054195 C92.1698237,50.925 92.9584415,49.7636813 93.6789228,48.1214634 L95.5460546,43.9234927 L96.1990302,43.0131122 L108.380337,14.4184585 L115.698396,14.4184585 L100.541791,49.3744195 C99.5418237,51.8046244 98.4200936,53.7182846 97.1766009,55.1154 C95.9331082,56.5125154 94.5607554,57.4927675 93.0595424,58.0561561 C91.5583294,58.6195447 89.9004968,58.901239 88.0860448,58.901239 Z M94.7236838,47.9019122 L80.1509716,14.4184585 L87.9791082,14.4184585 L99.8632643,42.3289073 L94.7236838,47.9019122 Z" id="Shape"></path>
                    <polygon id="Path" points="120.402618 46.756839 120.402618 1.81697561 127.97335 1.81697561 127.97335 46.756839"></polygon>
                    <polygon id="Path" points="137.932251 46.756839 137.932251 14.4184585 145.502983 14.4184585 145.502983 46.756839"></polygon>
                    <path d="M186.013308,47.3568195 C182.70616,47.3568195 179.537808,46.8827024 176.508254,45.9344683 C173.478699,44.9862341 171.06963,43.760722 169.281044,42.2579317 L172.038683,36.164439 C173.740836,37.5113984 175.842345,38.6260309 178.34321,39.5083366 C180.844075,40.3906423 183.406137,40.8317951 186.029395,40.8317951 C188.245727,40.8317951 190.037625,40.5915821 191.405088,40.1111561 C192.772552,39.6307301 193.77867,38.9727073 194.423444,38.1370878 C195.068218,37.3014683 195.390605,36.3603317 195.390605,35.313678 C195.390605,34.0190829 194.931472,32.9826813 194.013205,32.2044732 C193.094939,31.426265 191.895293,30.7978943 190.414269,30.319361 C188.933244,29.8408276 187.294654,29.4036179 185.498498,29.0077317 C183.702342,28.6118455 181.904924,28.1400943 180.106244,27.592478 C178.307565,27.0448618 176.66787,26.3330553 175.187161,25.4570585 C173.706452,24.5810618 172.506965,23.4211626 171.588698,21.977361 C170.670431,20.5335593 170.211298,18.6810959 170.211298,16.4199707 C170.211298,14.1115285 170.825158,12.0002407 172.052878,10.0861073 C173.280599,8.17197398 175.155932,6.63921626 177.678878,5.48783415 C180.201825,4.33645203 183.39762,3.76076098 187.266264,3.76076098 C189.816339,3.76076098 192.343859,4.08125528 194.848825,4.7222439 C197.353791,5.36323252 199.540628,6.29190894 201.409337,7.50827317 L198.902478,13.6462439 C197.013581,12.4910764 195.063644,11.6422081 193.052669,11.099639 C191.041693,10.5570699 189.090179,10.2857854 187.198127,10.2857854 C185.051825,10.2857854 183.293522,10.5476065 181.92322,11.0712488 C180.552917,11.5948911 179.555631,12.2869821 178.931361,13.147522 C178.307091,14.0080618 177.994956,14.979639 177.994956,16.0622537 C177.994956,17.3511707 178.45409,18.3834715 179.372356,19.1591561 C180.290623,19.9348407 181.490111,20.5518553 182.97082,21.0102 C184.451529,21.4685447 186.091223,21.9032309 187.889903,22.3142585 C189.688582,22.7252862 191.486,23.1957756 193.282156,23.7257268 C195.078313,24.255678 196.716903,24.9498195 198.197927,25.8081512 C199.678952,26.6664829 200.878597,27.8162878 201.796864,29.2575659 C202.71513,30.6988439 203.174264,32.5298569 203.174264,34.7506049 C203.174264,37.0186699 202.551571,39.1096114 201.306186,41.0234293 C200.0608,42.9372472 198.169064,44.4712667 195.630976,45.6254878 C193.092888,46.7797089 189.886999,47.3568195 186.013308,47.3568195 Z" id="Path"></path>
                    <path d="M210.246107,46.756839 L210.246107,14.4146732 L217.816838,14.4146732 L217.816838,46.756839 L210.246107,46.756839 Z M214.061755,9.08487805 C212.648552,9.08487805 211.487707,8.64072846 210.579219,7.75242927 C209.670731,6.86413008 209.216487,5.79413333 209.216487,4.54243902 C209.216487,3.25036748 209.670731,2.17027642 210.579219,1.30216585 C211.487707,0.434055285 212.648552,0 214.061755,0 C215.474959,0 216.635804,0.413866667 217.544292,1.2416 C218.45278,2.06933333 218.907024,3.10904715 218.907024,4.36074146 C218.907024,5.69319024 218.462874,6.81365854 217.574575,7.72214634 C216.686276,8.63063415 215.515336,9.08487805 214.061755,9.08487805 Z" id="Shape"></path>
                    <path d="M237.796549,47.1514634 C235.075502,47.1514634 232.47401,46.8046293 229.992071,46.110961 C227.510133,45.4172927 225.544266,44.5685821 224.094471,43.5648293 L227.006364,37.8101268 C228.440387,38.7388033 230.170772,39.5007659 232.19752,40.0960146 C234.224268,40.6912634 236.244234,40.9888878 238.257418,40.9888878 C240.651662,40.9888878 242.378735,40.6717057 243.438637,40.0373415 C244.49854,39.4029772 245.028491,38.5271382 245.028491,37.4098244 C245.028491,36.5385593 244.667777,35.868865 243.946349,35.4007415 C243.224922,34.9326179 242.272587,34.576478 241.089344,34.332322 C239.906102,34.0881659 238.60299,33.8664065 237.180008,33.6670439 C235.757026,33.4676813 234.332624,33.195135 232.906803,32.8494049 C231.480982,32.5036748 230.17645,32.002587 228.993208,31.3461415 C227.809966,30.6896959 226.857631,29.7895675 226.136203,28.6457561 C225.414775,27.5019447 225.054062,25.998839 225.054062,24.136439 C225.054062,22.1074829 225.637323,20.332935 226.803847,18.8127951 C227.970371,17.2926553 229.613219,16.1144602 231.732393,15.2782098 C233.851567,14.4419593 236.364104,14.0238341 239.270003,14.0238341 C241.446588,14.0238341 243.649514,14.2722488 245.878779,14.769078 C248.108044,15.2659073 249.950097,15.9609951 251.40494,16.8543415 L248.493993,22.6090439 C246.974169,21.6803675 245.431632,21.044426 243.866384,20.7012195 C242.301135,20.358013 240.759229,20.1864098 239.240666,20.1864098 C236.942318,20.1864098 235.234014,20.5237805 234.115754,21.198522 C232.997494,21.8732634 232.438364,22.7465789 232.438364,23.8184683 C232.438364,24.7597626 232.799236,25.4745659 233.520979,25.962878 C234.242722,26.4511902 235.195214,26.8350894 236.378457,27.1145756 C237.561699,27.3940618 238.864811,27.6333285 240.287793,27.8323756 C241.710775,28.0314228 243.133758,28.3052309 244.55674,28.6538 C245.979722,29.0023691 247.282834,29.4960439 248.466076,30.1348244 C249.649318,30.7736049 250.601653,31.6560683 251.323081,32.7822146 C252.044509,33.908361 252.405223,35.3849691 252.405223,37.212039 C252.405223,39.2258537 251.814548,40.9765854 250.633198,42.4642341 C249.451849,43.9518829 247.773985,45.105 245.599608,45.9235854 C243.425231,46.7421707 240.824211,47.1514634 237.796549,47.1514634 Z" id="Path"></path>
                    <path d="M271.142516,47.1514634 C267.599414,47.1514634 264.854866,46.2357203 262.908872,44.4042341 C260.962879,42.572748 259.989882,39.8681041 259.989882,36.2903024 L259.989882,7.28493659 L267.560614,7.28493659 L267.560614,36.1161756 C267.560614,37.6530341 267.956184,38.8446358 268.747326,39.6909805 C269.538467,40.5373252 270.654204,40.9604976 272.094536,40.9604976 C273.757573,40.9604976 275.156266,40.5172943 276.290614,39.6308878 L278.45395,45.0259805 C277.544831,45.7369984 276.44124,46.269 275.143175,46.6219854 C273.84511,46.9749707 272.511557,47.1514634 271.142516,47.1514634 Z M254.70835,20.6917561 L254.70835,14.6531512 L276.24235,14.6531512 L276.24235,20.6917561 L254.70835,20.6917561 Z" id="Shape"></path>
                    <path d="M298.813666,47.1514634 C295.23271,47.1514634 292.096534,46.4396569 289.405139,45.0160439 C286.713744,43.5924309 284.628165,41.6311382 283.148403,39.1321659 C281.66864,36.6331935 280.928759,33.7837593 280.928759,30.5838634 C280.928759,27.3732423 281.649713,24.5197073 283.091622,22.0232585 C284.533531,19.5268098 286.519586,17.5694602 289.049788,16.1512098 C291.57999,14.7329593 294.445985,14.0238341 297.647773,14.0238341 C300.812339,14.0238341 303.628178,14.7137171 306.09529,16.0934829 C308.562403,17.4732488 310.501929,19.4175073 311.913871,21.9262585 C313.325812,24.4350098 314.031783,27.3912228 314.031783,30.7948976 C314.031783,31.1034049 314.020427,31.4625415 313.997715,31.8723073 C313.975003,32.2820732 313.943458,32.6588748 313.903081,33.0027122 L286.980612,33.0027122 L286.980612,27.9833171 L309.904788,27.9833171 L306.918134,29.5807415 C306.953464,27.7265431 306.571931,26.0903187 305.773534,24.6720683 C304.975138,23.2538179 303.882271,22.1429707 302.494934,21.3395268 C301.107598,20.5360829 299.496925,20.134361 297.662915,20.134361 C295.829536,20.134361 294.208926,20.5360829 292.801086,21.3395268 C291.393245,22.1429707 290.30022,23.2626504 289.522012,24.6985659 C288.743804,26.1344813 288.3547,27.8148683 288.3547,29.7397268 L288.3547,30.9548293 C288.3547,32.8954602 288.795538,34.6077073 289.677212,36.0915707 C290.558887,37.5754341 291.80585,38.728078 293.4181,39.5495024 C295.030351,40.3709268 296.899848,40.781639 299.026593,40.781639 C300.842307,40.781639 302.473326,40.4917431 303.919651,39.9119512 C305.365977,39.3321593 306.651897,38.445122 307.777412,37.250839 L311.865607,41.9276585 C310.390577,43.6285496 308.551204,44.9244065 306.34749,45.8152293 C304.143777,46.706052 301.632502,47.1514634 298.813666,47.1514634 Z" id="Path"></path>
                    <path d="M362.076523,14.0238341 C364.685271,14.0238341 366.988982,14.5298114 368.987655,15.5417659 C370.986328,16.5537203 372.552208,18.105878 373.685294,20.198239 C374.81838,22.2906 375.384923,24.9676423 375.384923,28.2293659 L375.384923,46.756839 L367.814192,46.756839 L367.814192,29.2201854 C367.814192,26.3527707 367.180932,24.2124618 365.914411,22.7992585 C364.647891,21.3860553 362.854416,20.6794537 360.533987,20.6794537 C358.882936,20.6794537 357.418,21.0395366 356.139177,21.7597024 C354.860354,22.4798683 353.870954,23.5465528 353.170977,24.9597561 C352.471,26.3729593 352.121011,28.1602829 352.121011,30.3217268 L352.121011,46.756839 L344.55028,46.756839 L344.55028,29.2201854 C344.55028,26.3527707 343.919543,24.2124618 342.65807,22.7992585 C341.396597,21.3860553 339.600283,20.6794537 337.269128,20.6794537 C335.618078,20.6794537 334.153141,21.0395366 332.874319,21.7597024 C331.595496,22.4798683 330.606096,23.5465528 329.906119,24.9597561 C329.206141,26.3729593 328.856153,28.1602829 328.856153,30.3217268 L328.856153,46.756839 L321.285421,46.756839 L321.285421,14.4184585 L328.506006,14.4184585 L328.506006,23.0311122 L327.212358,20.4712585 C328.288032,18.3899382 329.867003,16.7950374 331.94927,15.6865561 C334.031536,14.5780748 336.417421,14.0238341 339.106923,14.0238341 C342.119444,14.0238341 344.746172,14.7720748 346.987109,16.2685561 C349.228045,17.7650374 350.714432,20.0431967 351.44627,23.1030341 L348.480436,22.0677366 C349.515733,19.6381626 351.247065,17.6901187 353.674431,16.2236049 C356.101797,14.7570911 358.902494,14.0238341 362.076523,14.0238341 Z" id="Path"></path>
                    <path d="M0,120.756839 L19.0602634,78.3607415 L26.8363512,78.3607415 L45.9496098,120.756839 L37.7098146,120.756839 L21.3324293,82.5606049 L24.4790146,82.5606049 L8.10162927,120.756839 L0,120.756839 Z M8.8076,110.942332 L10.9122634,104.758937 L33.7900683,104.758937 L35.9467805,110.942332 L8.8076,110.942332 Z" id="Shape"></path>
                    <path d="M50.6218859,120.756839 L50.6218859,88.4184585 L57.8424713,88.4184585 L57.8424713,97.3046049 L56.9888713,94.7210927 C57.927642,92.5236878 59.4458891,90.8581268 61.5436127,89.7244098 C63.6413363,88.5906927 66.2270566,88.0238341 69.3007737,88.0238341 L69.3007737,95.2321171 C68.976494,95.1866927 68.6788696,95.1526244 68.4079005,95.1299122 C68.1369314,95.1072 67.8645428,95.0958439 67.5907347,95.0958439 C64.72332,95.0958439 62.4401135,95.9295707 60.7411152,97.5970244 C59.0421168,99.264478 58.1926176,101.762189 58.1926176,105.090156 L58.1926176,120.756839 L50.6218859,120.756839 Z" id="Path"></path>
                    <path d="M93.3590843,120.756839 L93.3590843,114.1968 L92.970138,112.832176 L92.970138,101.37198 C92.970138,99.1594341 92.2996551,97.4358309 90.9586892,96.2011707 C89.6177234,94.9665106 87.5908177,94.3491805 84.8779722,94.3491805 C83.0673055,94.3491805 81.2894453,94.6340293 79.5443917,95.2037268 C77.799338,95.7734244 76.3113738,96.5500553 75.080499,97.5336195 L72.1430551,92.042 C73.8704437,90.7253236 75.9374112,89.7264602 78.3439575,89.0454098 C80.7505039,88.3643593 83.2458486,88.0238341 85.8299917,88.0238341 C90.5036567,88.0238341 94.123886,89.1461951 96.6906795,91.3909171 C99.257473,93.635639 100.54087,97.1020878 100.54087,101.790263 L100.54087,120.756839 L93.3590843,120.756839 Z M83.2322843,121.151463 C80.7736892,121.151463 78.6359039,120.739805 76.8189282,119.916488 C75.0019526,119.093171 73.6026291,117.948255 72.6209575,116.481741 C71.639286,115.015228 71.1484502,113.350771 71.1484502,111.488371 C71.1484502,109.664455 71.5881835,108.031859 72.4676502,106.59058 C73.3471169,105.149302 74.7754616,104.001233 76.7526843,103.146371 C78.7299071,102.291509 81.3465413,101.864078 84.6025868,101.864078 L93.9855624,101.864078 L93.9855624,106.883473 L85.1486258,106.883473 C82.5701608,106.883473 80.8334665,107.300179 79.9385429,108.13359 C79.0436193,108.967002 78.5961575,109.988735 78.5961575,111.19879 C78.5961575,112.563415 79.1437738,113.647607 80.2390063,114.451366 C81.3342388,115.255125 82.8436535,115.657005 84.7672502,115.657005 C86.6454226,115.657005 88.3209201,115.237618 89.7937429,114.398844 C91.2665656,113.56007 92.325364,112.314211 92.970138,110.661268 L94.2514843,115.194244 C93.5158616,117.094498 92.2121185,118.562431 90.3402551,119.598044 C88.4683917,120.633657 86.0990681,121.151463 83.2322843,121.151463 Z" id="Shape"></path>
                    <path d="M125.123944,121.1808 C121.732256,121.1808 118.714058,120.464104 116.069349,119.030712 C113.42464,117.59732 111.355307,115.62893 109.861349,113.125541 C108.367391,110.622153 107.620412,107.775558 107.620412,104.585756 C107.620412,101.355577 108.367391,98.4988878 109.861349,96.0156878 C111.355307,93.5324878 113.42464,91.5842862 116.069349,90.1710829 C118.714058,88.7578797 121.732256,88.051278 125.123944,88.051278 C128.273368,88.051278 131.049303,88.6872195 133.451749,89.9591024 C135.854194,91.2309854 137.681264,93.0984325 138.932959,95.5614439 L133.118637,98.9531317 C132.149583,97.4187967 130.968549,96.2882341 129.575534,95.5614439 C128.18252,94.8346537 126.678468,94.4712585 125.063378,94.4712585 C123.206025,94.4712585 121.53037,94.8750309 120.036412,95.6825756 C118.542455,96.4901203 117.371515,97.6509659 116.523593,99.1651122 C115.675671,100.679259 115.25171,102.48614 115.25171,104.585756 C115.25171,106.685372 115.675671,108.492254 116.523593,110.0064 C117.371515,111.520546 118.542455,112.681392 120.036412,113.488937 C121.53037,114.296481 123.206025,114.700254 125.063378,114.700254 C126.678468,114.700254 128.18252,114.336859 129.575534,113.610068 C130.968549,112.883278 132.149583,111.752715 133.118637,110.21838 L138.932959,113.610068 C137.681264,116.032702 135.854194,117.90015 133.451749,119.21241 C131.049303,120.52467 128.273368,121.1808 125.123944,121.1808 Z M121.97452,134.565854 C120.884334,134.565854 119.874903,134.454816 118.946227,134.232741 C118.01755,134.010667 117.169629,133.697743 116.402461,133.293971 L117.795476,129.720585 C118.441511,130.043603 119.097642,130.285867 119.763866,130.447376 C120.43009,130.608885 121.146786,130.689639 121.913954,130.689639 C123.084894,130.689639 123.912627,130.487753 124.397154,130.08398 C124.881681,129.680208 125.123944,129.155304 125.123944,128.509268 C125.123944,127.90361 124.871586,127.419083 124.366871,127.055688 C123.862155,126.692293 123.044516,126.510595 121.913954,126.510595 L120.036412,126.510595 L121.67169,120.332878 L125.790168,120.332878 L124.942246,123.724566 C126.718845,123.926452 128.041199,124.501828 128.90931,125.450693 C129.77742,126.399558 130.211476,127.520026 130.211476,128.812098 C130.211476,130.588696 129.464497,131.991805 127.970539,133.021424 C126.476581,134.051044 124.477908,134.565854 121.97452,134.565854 Z" id="Shape"></path>
                    <polygon id="Path" points="145.173521 120.756839 145.173521 75.8169756 152.744252 75.8169756 152.744252 120.756839"></polygon>
                    <path d="M182.592412,120.756839 L182.592412,114.1968 L182.203466,112.832176 L182.203466,101.37198 C182.203466,99.1594341 181.532983,97.4358309 180.192017,96.2011707 C178.851051,94.9665106 176.824145,94.3491805 174.1113,94.3491805 C172.300633,94.3491805 170.522773,94.6340293 168.777719,95.2037268 C167.032666,95.7734244 165.544702,96.5500553 164.313827,97.5336195 L161.376383,92.042 C163.103771,90.7253236 165.170739,89.7264602 167.577285,89.0454098 C169.983832,88.3643593 172.479176,88.0238341 175.063319,88.0238341 C179.736985,88.0238341 183.357214,89.1461951 185.924007,91.3909171 C188.490801,93.635639 189.774198,97.1020878 189.774198,101.790263 L189.774198,120.756839 L182.592412,120.756839 Z M172.465612,121.151463 C170.007017,121.151463 167.869232,120.739805 166.052256,119.916488 C164.23528,119.093171 162.835957,117.948255 161.854285,116.481741 C160.872614,115.015228 160.381778,113.350771 160.381778,111.488371 C160.381778,109.664455 160.821511,108.031859 161.700978,106.59058 C162.580445,105.149302 164.008789,104.001233 165.986012,103.146371 C167.963235,102.291509 170.579869,101.864078 173.835915,101.864078 L183.21889,101.864078 L183.21889,106.883473 L174.381954,106.883473 C171.803489,106.883473 170.066794,107.300179 169.171871,108.13359 C168.276947,108.967002 167.829485,109.988735 167.829485,111.19879 C167.829485,112.563415 168.377102,113.647607 169.472334,114.451366 C170.567567,115.255125 172.076981,115.657005 174.000578,115.657005 C175.87875,115.657005 177.554248,115.237618 179.027071,114.398844 C180.499893,113.56007 181.558692,112.314211 182.203466,110.661268 L183.484812,115.194244 C182.749189,117.094498 181.445446,118.562431 179.573583,119.598044 C177.701719,120.633657 175.332396,121.151463 172.465612,121.151463 Z" id="Shape"></path>
                    <path d="M199.45357,120.756839 L199.45357,88.4184585 L206.674155,88.4184585 L206.674155,97.3046049 L205.820555,94.7210927 C206.759326,92.5236878 208.277573,90.8581268 210.375296,89.7244098 C212.47302,88.5906927 215.05874,88.0238341 218.132457,88.0238341 L218.132457,95.2321171 C217.808178,95.1866927 217.510553,95.1526244 217.239584,95.1299122 C216.968615,95.1072 216.696227,95.0958439 216.422418,95.0958439 C213.555004,95.0958439 211.271797,95.9295707 209.572799,97.5970244 C207.873801,99.264478 207.024301,101.762189 207.024301,105.090156 L207.024301,120.756839 L199.45357,120.756839 Z" id="Path"></path>
                    <polygon id="Path" points="224.593093 120.756839 224.593093 88.4184585 232.163824 88.4184585 232.163824 120.756839"></polygon>
                    <polygon id="Path" points="269.930705 120.756839 269.930705 104.008488 271.724969 108.804546 253.308217 78.3607415 261.691856 78.3607415 276.506832 102.892751 271.785534 102.892751 286.668647 78.3607415 294.412559 78.3607415 276.011895 108.804546 277.791017 104.008488 277.791017 120.756839"></polygon>
                    <path d="M314.817045,120.756839 L314.817045,114.1968 L314.428099,112.832176 L314.428099,101.37198 C314.428099,99.1594341 313.757616,97.4358309 312.41665,96.2011707 C311.075684,94.9665106 309.048778,94.3491805 306.335933,94.3491805 C304.525266,94.3491805 302.747406,94.6340293 301.002352,95.2037268 C299.257299,95.7734244 297.769334,96.5500553 296.53846,97.5336195 L293.601016,92.042 C295.328404,90.7253236 297.395372,89.7264602 299.801918,89.0454098 C302.208465,88.3643593 304.703809,88.0238341 307.287952,88.0238341 C311.961617,88.0238341 315.581847,89.1461951 318.14864,91.3909171 C320.715434,93.635639 321.99883,97.1020878 321.99883,101.790263 L321.99883,120.756839 L314.817045,120.756839 Z M304.690245,121.151463 C302.23165,121.151463 300.093865,120.739805 298.276889,119.916488 C296.459913,119.093171 295.06059,117.948255 294.078918,116.481741 C293.097247,115.015228 292.606411,113.350771 292.606411,111.488371 C292.606411,109.664455 293.046144,108.031859 293.925611,106.59058 C294.805078,105.149302 296.233422,104.001233 298.210645,103.146371 C300.187868,102.291509 302.804502,101.864078 306.060548,101.864078 L315.443523,101.864078 L315.443523,106.883473 L306.606587,106.883473 C304.028121,106.883473 302.291427,107.300179 301.396504,108.13359 C300.50158,108.967002 300.054118,109.988735 300.054118,111.19879 C300.054118,112.563415 300.601734,113.647607 301.696967,114.451366 C302.7922,115.255125 304.301614,115.657005 306.225211,115.657005 C308.103383,115.657005 309.778881,115.237618 311.251704,114.398844 C312.724526,113.56007 313.783325,112.314211 314.428099,110.661268 L315.709445,115.194244 C314.973822,117.094498 313.670079,118.562431 311.798216,119.598044 C309.926352,120.633657 307.557029,121.151463 304.690245,121.151463 Z" id="Shape"></path>
                    <path d="M331.678203,120.756839 L331.678203,88.4184585 L338.898788,88.4184585 L338.898788,97.3046049 L338.045188,94.7210927 C338.983959,92.5236878 340.502206,90.8581268 342.599929,89.7244098 C344.697653,88.5906927 347.283373,88.0238341 350.35709,88.0238341 L350.35709,95.2321171 C350.032811,95.1866927 349.735186,95.1526244 349.464217,95.1299122 C349.193248,95.1072 348.920859,95.0958439 348.647051,95.0958439 C345.779637,95.0958439 343.49643,95.9295707 341.797432,97.5970244 C340.098433,99.264478 339.248934,101.762189 339.248934,105.090156 L339.248934,120.756839 L331.678203,120.756839 Z" id="Path"></path>
                    <polygon id="Path" points="356.817726 120.756839 356.817726 88.4184585 364.388457 88.4184585 364.388457 120.756839"></polygon>
                    <path d="M384.327476,121.1808 C381.622201,121.1808 379.027963,120.827499 376.544763,120.120898 C374.061563,119.414296 372.093173,118.55628 370.639593,117.546849 L373.546754,111.793093 C375.000334,112.721769 376.736555,113.488937 378.755417,114.094595 C380.774279,114.700254 382.793141,115.003083 384.812002,115.003083 C387.194259,115.003083 388.920386,114.680065 389.990383,114.034029 C391.06038,113.387993 391.595378,112.519883 391.595378,111.429698 C391.595378,110.541398 391.231983,109.86508 390.505193,109.400741 C389.778402,108.936403 388.829537,108.583102 387.658597,108.340839 C386.487658,108.098576 385.185492,107.876501 383.7521,107.674615 C382.318708,107.472728 380.885316,107.200182 379.451924,106.856976 C378.018532,106.513769 376.716367,106.009054 375.545427,105.342829 C374.374487,104.676605 373.425622,103.778211 372.698832,102.647649 C371.972041,101.517086 371.608646,100.023128 371.608646,98.1657756 C371.608646,96.1065366 372.194116,94.3198439 373.365056,92.8056976 C374.535996,91.2915512 376.181368,90.1206114 378.301173,89.292878 C380.420978,88.4651447 382.934461,88.051278 385.841622,88.051278 C388.021993,88.051278 390.222552,88.2935415 392.4433,88.7780683 C394.664048,89.2625951 396.501212,89.9490081 397.954793,90.8373073 L395.047632,96.5910634 C393.513297,95.662387 391.968867,95.0264455 390.414344,94.683239 C388.85982,94.3400325 387.315391,94.1684293 385.781056,94.1684293 C383.479554,94.1684293 381.773615,94.5116358 380.663241,95.1980488 C379.552867,95.8844618 378.99768,96.7525724 378.99768,97.8023805 C378.99768,98.7714341 379.361076,99.4982244 380.087866,99.9827512 C380.814656,100.467278 381.763521,100.850862 382.934461,101.133502 C384.105401,101.416143 385.407567,101.648312 386.840958,101.83001 C388.27435,102.011707 389.697648,102.284254 391.110851,102.647649 C392.524054,103.011044 393.82622,103.505665 395.017349,104.131512 C396.208477,104.757359 397.167437,105.635564 397.894227,106.766127 C398.621017,107.896689 398.984412,109.370459 398.984412,111.187434 C398.984412,113.206296 398.388848,114.962706 397.197719,116.456663 C396.006591,117.950621 394.320841,119.111467 392.140471,119.9392 C389.9601,120.766933 387.355768,121.1808 384.327476,121.1808 Z M382.995027,134.565854 C381.904841,134.565854 380.89541,134.454816 379.966734,134.232741 C379.038058,134.010667 378.190136,133.697743 377.422968,133.293971 L378.815983,129.720585 C379.462019,130.043603 380.118149,130.285867 380.784373,130.447376 C381.450597,130.608885 382.167293,130.689639 382.934461,130.689639 C384.105401,130.689639 384.933134,130.487753 385.417661,130.08398 C385.902188,129.680208 386.144451,129.155304 386.144451,128.509268 C386.144451,127.90361 385.892093,127.419083 385.387378,127.055688 C384.882663,126.692293 384.065024,126.510595 382.934461,126.510595 L381.056919,126.510595 L382.692197,120.332878 L386.810676,120.332878 L385.962754,123.724566 C387.739352,123.926452 389.061706,124.501828 389.929817,125.450693 C390.797928,126.399558 391.231983,127.520026 391.231983,128.812098 C391.231983,130.588696 390.485004,131.991805 388.991046,133.021424 C387.497089,134.051044 385.498415,134.565854 382.995027,134.565854 Z" id="Shape"></path>
                    <path d="M446.35232,88.0238341 C448.961068,88.0238341 451.264779,88.5298114 453.263452,89.5417659 C455.262125,90.5537203 456.828005,92.105878 457.961091,94.198239 C459.094177,96.2906 459.66072,98.9676423 459.66072,102.229366 L459.66072,120.756839 L452.089989,120.756839 L452.089989,103.220185 C452.089989,100.352771 451.456728,98.2124618 450.190208,96.7992585 C448.923688,95.3860553 447.130213,94.6794537 444.809784,94.6794537 C443.158733,94.6794537 441.693797,95.0395366 440.414974,95.7597024 C439.136151,96.4798683 438.146751,97.5465528 437.446774,98.9597561 C436.746797,100.372959 436.396808,102.160283 436.396808,104.321727 L436.396808,120.756839 L428.826076,120.756839 L428.826076,103.220185 C428.826076,100.352771 428.19534,98.2124618 426.933867,96.7992585 C425.672393,95.3860553 423.87608,94.6794537 421.544925,94.6794537 C419.893875,94.6794537 418.428938,95.0395366 417.150115,95.7597024 C415.871293,96.4798683 414.881893,97.5465528 414.181915,98.9597561 C413.481938,100.372959 413.131949,102.160283 413.131949,104.321727 L413.131949,120.756839 L405.561218,120.756839 L405.561218,88.4184585 L412.781803,88.4184585 L412.781803,97.0311122 L411.488154,94.4712585 C412.563829,92.3899382 414.1428,90.7950374 416.225067,89.6865561 C418.307333,88.5780748 420.693218,88.0238341 423.38272,88.0238341 C426.395241,88.0238341 429.021969,88.7720748 431.262906,90.2685561 C433.503842,91.7650374 434.990229,94.0431967 435.722067,97.1030341 L432.756232,96.0677366 C433.79153,93.6381626 435.522862,91.6901187 437.950228,90.2236049 C440.377593,88.7570911 443.178291,88.0238341 446.35232,88.0238341 Z" id="Path"></path>
                    <path d="M489.229977,120.756839 L489.229977,114.1968 L488.84103,112.832176 L488.84103,101.37198 C488.84103,99.1594341 488.170547,97.4358309 486.829582,96.2011707 C485.488616,94.9665106 483.46171,94.3491805 480.748865,94.3491805 C478.938198,94.3491805 477.160338,94.6340293 475.415284,95.2037268 C473.67023,95.7734244 472.182266,96.5500553 470.951391,97.5336195 L468.013947,92.042 C469.741336,90.7253236 471.808304,89.7264602 474.21485,89.0454098 C476.621396,88.3643593 479.116741,88.0238341 481.700884,88.0238341 C486.374549,88.0238341 489.994778,89.1461951 492.561572,91.3909171 C495.128365,93.635639 496.411762,97.1020878 496.411762,101.790263 L496.411762,120.756839 L489.229977,120.756839 Z M479.103177,121.151463 C476.644582,121.151463 474.506796,120.739805 472.689821,119.916488 C470.872845,119.093171 469.473521,117.948255 468.49185,116.481741 C467.510178,115.015228 467.019343,113.350771 467.019343,111.488371 C467.019343,109.664455 467.459076,108.031859 468.338543,106.59058 C469.218009,105.149302 470.646354,104.001233 472.623577,103.146371 C474.6008,102.291509 477.217434,101.864078 480.473479,101.864078 L489.856455,101.864078 L489.856455,106.883473 L481.019518,106.883473 C478.441053,106.883473 476.704359,107.300179 475.809435,108.13359 C474.914512,108.967002 474.46705,109.988735 474.46705,111.19879 C474.46705,112.563415 475.014666,113.647607 476.109899,114.451366 C477.205131,115.255125 478.714546,115.657005 480.638143,115.657005 C482.516315,115.657005 484.191813,115.237618 485.664635,114.398844 C487.137458,113.56007 488.196256,112.314211 488.84103,110.661268 L490.122377,115.194244 C489.386754,117.094498 488.083011,118.562431 486.211147,119.598044 C484.339284,120.633657 481.96996,121.151463 479.103177,121.151463 Z" id="Shape"></path>
                    <path d="M516.098695,121.151463 C513.377648,121.151463 510.776155,120.804629 508.294217,120.110961 C505.812279,119.417293 503.846412,118.568582 502.396617,117.564829 L505.30851,111.810127 C506.742533,112.738803 508.472918,113.500766 510.499666,114.096015 C512.526414,114.691263 514.54638,114.988888 516.559563,114.988888 C518.953807,114.988888 520.680881,114.671706 521.740783,114.037341 C522.800685,113.402977 523.330637,112.527138 523.330637,111.409824 C523.330637,110.538559 522.969923,109.868865 522.248495,109.400741 C521.527068,108.932618 520.574733,108.576478 519.39149,108.332322 C518.208248,108.088166 516.905136,107.866407 515.482154,107.667044 C514.059172,107.467681 512.63477,107.195135 511.208949,106.849405 C509.783128,106.503675 508.478596,106.002587 507.295354,105.346141 C506.112111,104.689696 505.159776,103.789567 504.438349,102.645756 C503.716921,101.501945 503.356207,99.998839 503.356207,98.136439 C503.356207,96.1074829 503.939469,94.332935 505.105993,92.8127951 C506.272516,91.2926553 507.915365,90.1144602 510.034539,89.2782098 C512.153713,88.4419593 514.66625,88.0238341 517.572149,88.0238341 C519.748734,88.0238341 521.951659,88.2722488 524.180924,88.769078 C526.41019,89.2659073 528.252243,89.9609951 529.707085,90.8543415 L526.796139,96.6090439 C525.276315,95.6803675 523.733778,95.044426 522.168529,94.7012195 C520.603281,94.358013 519.061375,94.1864098 517.542812,94.1864098 C515.244464,94.1864098 513.53616,94.5237805 512.4179,95.198522 C511.29964,95.8732634 510.74051,96.7465789 510.74051,97.8184683 C510.74051,98.7597626 511.101381,99.4745659 511.823124,99.962878 C512.544868,100.45119 513.49736,100.835089 514.680603,101.114576 C515.863845,101.394062 517.166957,101.633328 518.589939,101.832376 C520.012921,102.031423 521.435903,102.305231 522.858885,102.6538 C524.281868,103.002369 525.58498,103.496044 526.768222,104.134824 C527.951464,104.773605 528.903799,105.656068 529.625227,106.782215 C530.346655,107.908361 530.707368,109.384969 530.707368,111.212039 C530.707368,113.225854 530.116694,114.976585 528.935344,116.464234 C527.753994,117.951883 526.076131,119.105 523.901754,119.923585 C521.727376,120.742171 519.126357,121.151463 516.098695,121.151463 Z" id="Path"></path>
                    <polygon id="Path" points="537.304994 120.756839 537.304994 88.4184585 544.875725 88.4184585 544.875725 120.756839"></polygon>
                </g>
                <polygon id="Rectangle" fill="#878787" transform="translate(53.340803, 168.248748) rotate(90.000000) translate(-53.340803, -168.248748) " points="48.7835778 114.907944 57.898029 114.907944 57.898029 221.589551 48.7835778 221.589551"></polygon>
                <polygon id="Rectangle" fill="#878787" transform="translate(53.340803, 139.858504) rotate(90.000000) translate(-53.340803, -139.858504) " points="48.7835778 86.5177003 57.898029 86.5177003 57.898029 193.199307 48.7835778 193.199307"></polygon>
                <polygon id="Rectangle" fill="#878787" transform="translate(53.340803, 111.468260) rotate(90.000000) translate(-53.340803, -111.468260) " points="48.7835778 58.1274564 57.898029 58.1274564 57.898029 164.809063 48.7835778 164.809063"></polygon>
                <polygon id="Rectangle" fill="#878787" transform="translate(53.340803, 83.078016) rotate(90.000000) translate(-53.340803, -83.078016) " points="48.7835778 29.7372125 57.898029 29.7372125 57.898029 136.418819 48.7835778 136.418819"></polygon>
                <polygon id="Rectangle" fill="#878787" transform="translate(53.340803, 54.687772) rotate(90.000000) translate(-53.340803, -54.687772) " points="48.7835778 1.34696859 57.898029 1.34696859 57.898029 108.028575 48.7835778 108.028575"></polygon>
                <polygon id="Rectangle" fill="#878787" transform="translate(53.340803, 26.297528) rotate(90.000000) translate(-53.340803, -26.297528) " points="48.7835778 -27.0432753 57.898029 -27.0432753 57.898029 79.6383314 48.7835778 79.6383314"></polygon>
                <polygon id="Rectangle" fill="#000000" transform="translate(93.055112, 96.905366) rotate(90.000000) translate(-93.055112, -96.905366) " points="-3.85025372 91.2308123 189.960478 91.2308123 189.960478 102.579919 -3.85025372 102.579919"></polygon>
                <polygon id="Rectangle" fill="#000000" transform="translate(13.611362, 96.905366) rotate(90.000000) translate(-13.611362, -96.905366) " points="-83.2940034 91.2308123 110.516728 91.2308123 110.516728 102.579919 -83.2940034 102.579919"></polygon>
            </g>
        </g>
    </g>
</svg>