<svg width="1024" height="1024" viewBox="0 0 1024 1024" fill="none" xmlns="http://www.w3.org/2000/svg">
<rect x="264" y="166" width="491" height="61" fill="white"/>
<rect x="264" y="293" width="491" height="61" fill="white"/>
<rect x="264" y="420" width="491" height="61" fill="white"/>
<rect x="264" y="547" width="491" height="61" fill="white"/>
<rect x="264" y="674" width="491" height="61" fill="white"/>
<rect x="264" y="801" width="491" height="61" fill="white"/>
<rect x="299" y="69" width="71" height="887" fill="white"/>
<rect x="654" y="69" width="71" height="887" fill="white"/>
<path fill-rule="evenodd" clip-rule="evenodd" d="M750.115 810.995V851.753H273.999V810.995L750.115 810.995Z" fill="#878787"/>
<path fill-rule="evenodd" clip-rule="evenodd" d="M750.115 684.04V724.797H273.999V684.04L750.115 684.04Z" fill="#878787"/>
<path fill-rule="evenodd" clip-rule="evenodd" d="M750.115 557.084V597.842H273.999V557.084H750.115Z" fill="#878787"/>
<path fill-rule="evenodd" clip-rule="evenodd" d="M750.115 430.129V470.887H273.999V430.129L750.115 430.129Z" fill="#878787"/>
<path fill-rule="evenodd" clip-rule="evenodd" d="M750.115 303.174V343.932H273.999V303.174H750.115Z" fill="#878787"/>
<path fill-rule="evenodd" clip-rule="evenodd" d="M750.115 176.218V216.976L273.999 216.976V176.218L750.115 176.218Z" fill="#878787"/>
<path fill-rule="evenodd" clip-rule="evenodd" d="M714.627 79V945.682H663.976V79H714.627Z" fill="black"/>
<path fill-rule="evenodd" clip-rule="evenodd" d="M360.072 79L360.072 945.682H309.422L309.422 79L360.072 79Z" fill="black"/>
</svg>
